#N canvas 132 45 666 602 10;
#X msg 13 35 connect 127.0.0.1 61000;
#X obj 139 287 tgl 15 0 empty empty empty 17 7 0 10 -262144 -1 -1 0
1;
#X text 338 68 fade in over 200 frames;
#X text 212 92 fade out over 300 frames;
#X floatatom 139 245 5 1 99 0 - - -;
#X floatatom 139 329 5 0 0 0 - - -;
#X floatatom 139 506 5 0 0 0 - - -;
#X text 207 505 display mode;
#X text 207 329 set playback rate;
#X text 204 244 set framerate;
#X text 205 287 toggle info (also key 'i');
#X text 276 114 fade in a still image;
#X text 212 138 fade out over 10 frames;
#X obj 13 113 netsend -u -b;
#X obj 23 71 list prepend send;
#X obj 23 89 list trim;
#X obj 139 523 oscformat /mode;
#X obj 139 346 oscformat /speed;
#X obj 139 304 oscformat /info;
#X obj 139 262 oscformat /fps;
#X obj 139 207 oscformat /stop;
#X msg 183 139 10;
#X obj 131 180 oscformat /start;
#X msg 183 115 kjhkjh.png 10;
#X obj 131 162 list;
#X msg 183 92 300;
#X msg 183 69 yetanotherdemo.mov 200 1;
#X text 178 25 filename should match a movie or image file in the data
directory;
#X obj 139 570 oscformat /exit;
#X obj 139 553 bng 15 250 50 0 empty empty empty 17 7 0 10 -262144
-1 -1;
#X text 207 552 quit app;
#X text 496 69 0 - no loop;
#X text 496 90 2 - palindrome;
#X text 302 498 0 - fill screen (ignore original aspect ratio);
#X text 302 509 1 - no scaling (original dimensions);
#X text 302 520 2 - scale to fit width (crop height);
#X text 302 531 3 - scale to fit height (crop width);
#X obj 139 432 oscformat /frame;
#X text 207 415 jump to frame in movie;
#X text 207 459 jump to frame in jump to position in movie (0.0-1.0)
;
#X obj 139 476 oscformat /position;
#X msg 139 414 150;
#X msg 139 458 0.5;
#X text 11 15 FIRST CLICK HERE;
#X floatatom 139 371 5 0 1 0 - - -;
#X obj 139 388 oscformat /volume;
#X text 207 371 set volume;
#X text 496 79 1 - normal loop (default);
#X msg 269 45 /some/place/video.mov 200 1;
#X text 444 45 or use an absolute path;
#X connect 0 0 13 0;
#X connect 1 0 18 0;
#X connect 4 0 19 0;
#X connect 5 0 17 0;
#X connect 6 0 16 0;
#X connect 14 0 15 0;
#X connect 15 0 13 0;
#X connect 16 0 14 0;
#X connect 17 0 14 0;
#X connect 18 0 14 0;
#X connect 19 0 14 0;
#X connect 20 0 14 0;
#X connect 21 0 20 0;
#X connect 22 0 14 0;
#X connect 23 0 24 0;
#X connect 24 0 22 0;
#X connect 25 0 20 0;
#X connect 26 0 24 0;
#X connect 28 0 14 0;
#X connect 29 0 28 0;
#X connect 37 0 14 0;
#X connect 40 0 14 0;
#X connect 41 0 37 0;
#X connect 42 0 40 0;
#X connect 44 0 45 0;
#X connect 45 0 14 0;
#X connect 48 0 24 0;
